<svg width="86" height="48" viewBox="0 0 86 48" xmlns="http://www.w3.org/2000/svg">
  <g fill="none" fill-rule="evenodd">
    <!-- TIM DEV Logo Shield -->
    <path d="M43 6 L43 42 L75 42 L75 6 Z" fill="var(--initial-loader-color, #9155FD)" opacity="0.9"/>
    <path d="M11 6 L11 42 L43 42 L43 6 Z" fill="var(--initial-loader-color, #9155FD)" opacity="0.7"/>
    
    <!-- Letter T -->
    <path d="M25 15 L25 20 L30 20 L30 22 L23 22 L23 20 L23 15 Z" fill="white"/>
    <path d="M21 15 L21 22 L19 22 L19 15 Z" fill="white"/>
    
    <!-- Letter I -->
    <path d="M35 15 L35 22 L33 22 L33 15 Z" fill="white"/>
    
    <!-- Letter M -->
    <path d="M41 15 L41 22 L39 22 L39 18 L37 22 L35 22 L35 15 L37 15 L37 19 L39 15 L41 15 Z" fill="white"/>
    
    <!-- DEV Text -->
    <path d="M50 28 L50 33 L52 33 L52 30 L54 30 L54 33 L56 33 L56 28 L54 28 L54 31 L52 31 L52 28 Z" fill="white"/>
    <path d="M60 28 L60 33 L58 33 L58 28 Z" fill="white"/>
    <path d="M64 28 L64 33 L62 33 L62 28 Z" fill="white"/>
    
    <!-- Decorative elements -->
    <circle cx="20" cy="35" r="2" fill="white" opacity="0.8"/>
    <circle cx="26" cy="35" r="2" fill="white" opacity="0.8"/>
    <circle cx="32" cy="35" r="2" fill="white" opacity="0.8"/>
    
    <!-- Shield border -->
    <path d="M11 6 L43 6 L75 6 L75 42 L43 42 L11 42 Z" 
          fill="none" 
          stroke="var(--initial-loader-color, #9155FD)" 
          stroke-width="2"/>
  </g>
</svg>
